<svg xmlns="http://www.w3.org/2000/svg" viewBox="0 0 1200 630" fill="none">
  <defs>
    <linearGradient id="bg" x1="0" y1="0" x2="1200" y2="630" gradientUnits="userSpaceOnUse">
      <stop stop-color="#fdf9ee"/>
      <stop offset="1" stop-color="#e6f2ea"/>
    </linearGradient>
    <linearGradient id="g" x1="250" y1="140" x2="950" y2="490" gradientUnits="userSpaceOnUse">
      <stop stop-color="#0a5d2e"/>
      <stop offset="1" stop-color="#15723b"/>
    </linearGradient>
  </defs>
  <rect width="1200" height="630" fill="url(#bg)"/>
  <circle cx="950" cy="150" r="180" fill="#fbf2d8"/>
  <circle cx="980" cy="150" r="135" fill="#d4a017" opacity="0.14"/>
  <rect x="120" y="105" width="120" height="120" rx="30" fill="url(#g)"/>
  <circle cx="180" cy="165" r="42" fill="none" stroke="#d4a017" stroke-width="8"/>
  <path d="M156 183v-42h17c10 0 17 5 17 14 0 8-5 13-12 14l14 14h-12l-13-13h-1v13h-10Zm10-22h6c5 0 8-2 8-6s-3-6-8-6h-6v12Z" fill="#fbf2d8"/>
  <text x="120" y="330" font-family="Inter, Arial, sans-serif" font-size="54" font-weight="700" fill="#0a5d2e">Fondation Vegas Jeunes</text>
  <text x="120" y="390" font-family="Inter, Arial, sans-serif" font-size="30" fill="#2c3a32">pour le Développement · ONG centrafricaine</text>
  <text x="120" y="455" font-family="Inter, Arial, sans-serif" font-size="28" fill="#5a675f">Santé mentale · Protection · Paix · Développement</text>
</svg>